# xmcd
#
# Track frame offsets: 
#        150
#        17931
#        39738
#        61056
#        74600
#        94633
#        117226
#        138500
#        157475
#        176755
#        199374
#        211587
#        233780
#        254222
#        273223
#        295833
#
# Disc length: 4006 seconds
#
# Revision: 0
# Processed by: cddbd v1.5.2PL0 Copyright (c) Steve Scherf et al.
# Submitted via: ExactAudioCopyFreeDBPlugin 1.0
#
DISCID=fb0fa410
DTITLE=Zhane - Saturday Night
DYEAR=1997
DGENRE=R&B
TTITLE0=Request Line
TTITLE1=Saturday Night
TTITLE2=So Badd
TTITLE3=Crush
TTITLE4=This Song Is For You
TTITLE5=Just Like That
TTITLE6=Last Dance
TTITLE7=Good Times
TTITLE8=For The Longest Time
TTITLE9=Rendez-Vous
TTITLE10=My Word Is Bond
TTITLE11=Kindness For Granted
TTITLE12=Temporary Thing
TTITLE13=Confusion
TTITLE14=Color
TTITLE15=Piece It Together
EXTD=
EXTT0=
EXTT1=
EXTT2=
EXTT3=
EXTT4=
EXTT5=
EXTT6=
EXTT7=
EXTT8=
EXTT9=
EXTT10=
EXTT11=
EXTT12=
EXTT13=
EXTT14=
EXTT15=
PLAYORDER=
